<svg width="128" height="128" viewBox="0 0 128 128" fill="none" xmlns="http://www.w3.org/2000/svg">
  <g clip-path="url(#clip0_618_9702)">
    <rect width="128" height="128" fill="#485459"/>
    <path d="M25.0208 27.9037C26.5112 27.9037 27.7265 26.691 27.7265 25.2006C27.7265 23.7101 26.5112 22.5 25.0208 22.5C23.5304 22.5 22.3203 23.7127 22.3203 25.2006C22.3203 26.6885 23.533 27.9037 25.0208 27.9037Z" fill="white"/>
    <path d="M44.7369 27.8334C46.226 27.8334 47.4374 26.6207 47.4374 25.1303C47.4374 23.6398 46.2248 22.4297 44.7369 22.4297C43.2491 22.4297 42.0312 23.6424 42.0312 25.1303C42.0312 26.6181 43.2465 27.8334 44.7369 27.8334Z" fill="white"/>
    <path d="M64.4453 27.7631C65.9357 27.7631 67.1458 26.5504 67.1458 25.0574C67.1458 23.5643 65.9357 22.3594 64.4453 22.3594C62.9548 22.3594 61.7422 23.5721 61.7422 25.0574C61.7422 26.5427 62.9548 27.7631 64.4453 27.7631Z" fill="white"/>
    <path d="M84.1484 27.6928C85.6388 27.6928 86.8489 26.4801 86.8489 24.9896C86.8489 23.4992 85.6388 22.2891 84.1484 22.2891C82.658 22.2891 81.4453 23.5017 81.4453 24.9896C81.4453 26.4775 82.658 27.6928 84.1484 27.6928Z" fill="white"/>
    <path d="M25.0208 47.0756C26.5112 47.0756 27.7265 45.8629 27.7265 44.3724C27.7265 42.882 26.5112 41.6719 25.0208 41.6719C23.5304 41.6719 22.3203 42.8846 22.3203 44.3724C22.3203 45.8603 23.533 47.0756 25.0208 47.0756Z" fill="white"/>
    <path d="M44.7369 47.0105C46.226 47.0105 47.4374 45.7978 47.4374 44.3074C47.4374 42.8169 46.2248 41.6094 44.7369 41.6094C43.2491 41.6094 42.0312 42.8221 42.0312 44.3074C42.0312 45.7927 43.2465 47.0105 44.7369 47.0105Z" fill="white"/>
    <path d="M64.4453 46.9428C65.9357 46.9428 67.1458 45.7301 67.1458 44.2371C67.1458 42.744 65.9357 41.5391 64.4453 41.5391C62.9548 41.5391 61.7422 42.7517 61.7422 44.2371C61.7422 45.7224 62.9548 46.9428 64.4453 46.9428Z" fill="white"/>
    <path d="M25.0208 66.2553C26.5112 66.2553 27.7265 65.0426 27.7265 63.5496C27.7265 62.0565 26.5112 60.8516 25.0208 60.8516C23.5304 60.8516 22.3203 62.0642 22.3203 63.5496C22.3203 65.0349 23.533 66.2553 25.0208 66.2553Z" fill="white"/>
    <path d="M44.7369 66.185C46.226 66.185 47.4374 64.9723 47.4374 63.4793C47.4374 61.9862 46.2248 60.7812 44.7369 60.7812C43.2491 60.7812 42.0312 61.9939 42.0312 63.4793C42.0312 64.9646 43.2465 66.185 44.7369 66.185Z" fill="white"/>
    <path d="M25.0208 86.5496C26.5112 86.5496 27.7265 85.3395 27.7265 83.849C27.7265 82.3586 26.5112 81.1484 25.0208 81.1484C23.5304 81.1484 22.3203 82.3611 22.3203 83.849C22.3203 85.3369 23.533 86.5496 25.0208 86.5496Z" fill="white"/>
    <path d="M104.383 98.7109C101.87 98.7109 99.8281 100.756 99.8281 103.271C99.8281 105.786 101.87 107.823 104.383 107.823C106.896 107.823 108.943 105.779 108.943 103.271C108.943 100.763 106.898 98.7109 104.383 98.7109Z" fill="white"/>
    <path d="M102.37 35.2487C107.677 35.2487 111.996 30.9303 111.996 25.6256C111.996 20.3209 107.677 16 102.37 16C97.0631 16 92.75 20.3183 92.75 25.6256C92.75 30.9329 97.0683 35.2487 102.37 35.2487Z" fill="white"/>
    <path d="M83.1853 35.2344C77.882 35.2344 73.5625 39.5527 73.5625 44.8574C73.5625 50.1621 77.8833 54.483 83.1853 54.483C88.4873 54.483 92.8107 50.1647 92.8107 44.8574C92.8107 39.5502 88.4925 35.2344 83.1853 35.2344Z" fill="white"/>
    <path d="M73.6336 64.0996C73.6336 58.7936 69.3153 54.4766 64.0082 54.4766C58.7011 54.4766 54.3828 58.7949 54.3828 64.0996C54.3828 69.4043 58.7011 73.7227 64.0082 73.7227C69.3153 73.7227 73.6336 69.4043 73.6336 64.0996Z" fill="white"/>
    <path d="M54.4383 83.3418C54.4383 78.0384 50.12 73.7188 44.8129 73.7188C39.5057 73.7188 35.1875 78.0397 35.1875 83.3418C35.1875 88.6439 39.5057 92.9648 44.8129 92.9648C50.12 92.9648 54.4383 88.6465 54.4383 83.3418Z" fill="white"/>
    <path d="M25.6228 92.9531C20.317 92.9531 16 97.274 16 102.576C16 107.878 20.3182 112.202 25.6228 112.202C30.9274 112.202 35.2482 107.883 35.2482 102.576C35.2482 97.2689 30.93 92.9531 25.6228 92.9531Z" fill="white"/>
    <path d="M103.339 38.5391C98.846 38.5391 95.1875 42.1951 95.1875 46.6909C95.1875 51.1868 98.846 54.8428 103.339 54.8428C107.832 54.8428 111.493 51.1842 111.493 46.6909C111.493 42.1977 107.832 38.5391 103.339 38.5391Z" fill="white"/>
    <path d="M84.6179 57.3594C80.1247 57.3594 76.4688 61.0129 76.4688 65.5087C76.4688 70.0045 80.1247 73.6631 84.6179 73.6631C89.111 73.6631 92.7721 70.0045 92.7721 65.5087C92.7721 61.0129 89.1136 57.3594 84.6179 57.3594Z" fill="white"/>
    <path d="M74.0612 84.3159C74.0612 79.8227 70.4026 76.1641 65.9069 76.1641C61.4112 76.1641 57.7578 79.8227 57.7578 84.3159C57.7578 88.8092 61.4138 92.4704 65.9069 92.4704C70.4001 92.4704 74.0612 88.8092 74.0612 84.3159Z" fill="white"/>
    <path d="M47.1907 94.9766C42.6976 94.9766 39.0391 98.6326 39.0391 103.128C39.0391 107.624 42.6976 111.28 47.1907 111.28C51.6839 111.28 55.345 107.624 55.345 103.128C55.345 98.6326 51.6839 94.9766 47.1907 94.9766Z" fill="white"/>
    <path d="M103.591 59.5547C99.6802 59.5547 96.5 62.7375 96.5 66.6482C96.5 70.5589 99.6802 73.7366 103.591 73.7366C107.501 73.7366 110.682 70.5563 110.682 66.6482C110.682 62.7401 107.501 59.5547 103.591 59.5547Z" fill="white"/>
    <path d="M85.5126 77.9609C81.602 77.9609 78.4219 81.1412 78.4219 85.0519C78.4219 88.9626 81.602 92.1428 85.5126 92.1428C89.4232 92.1428 92.6034 88.96 92.6034 85.0519C92.6034 81.1438 89.4232 77.9609 85.5126 77.9609Z" fill="white"/>
    <path d="M67.4476 96.3594C63.5395 96.3594 60.3594 99.5422 60.3594 103.45C60.3594 107.358 63.5395 110.541 67.4476 110.541C71.3556 110.541 74.5409 107.358 74.5409 103.45C74.5409 99.5422 71.3582 96.3594 67.4476 96.3594Z" fill="white"/>
    <path d="M104.173 79.6797C100.961 79.6797 98.3516 82.2941 98.3516 85.5039C98.3516 88.7137 100.961 91.3282 104.173 91.3282C107.385 91.3282 109.997 88.7137 109.997 85.5039C109.997 82.2941 107.388 79.6797 104.173 79.6797Z" fill="white"/>
    <path d="M86.72 97.2812C83.5076 97.2812 80.8984 99.8957 80.8984 103.105C80.8984 106.315 83.5076 108.93 86.72 108.93C89.9323 108.93 92.5441 106.315 92.5441 103.105C92.5441 99.8957 89.9323 97.2812 86.72 97.2812Z" fill="white"/>
  </g>
  <defs>
    <clipPath id="clip0_618_9702">
      <rect width="128" height="128" fill="white"/>
    </clipPath>
  </defs>
</svg>