<?xml version="1.0" encoding="UTF-8" standalone="no"?>
<svg width="237.00458" zoomAndPan="magnify" viewBox="0 0 177.75343 55.365166" height="73.820221" preserveAspectRatio="xMidYMid" version="1.0" id="svg95" xmlns="http://www.w3.org/2000/svg" xmlns:svg="http://www.w3.org/2000/svg">
  <defs id="defs4">
    <clipPath id="d6372f5a1a">
      <path d="m 75,83 h 7.09375 v 6.339844 H 75 Z m 0,0" clip-rule="nonzero" id="path1"/>
    </clipPath>
    <clipPath id="cd3a8590a1">
      <path d="M 28.265625,85 H 31 v 3 h -2.734375 z m 0,0" clip-rule="nonzero" id="path2"/>
    </clipPath>
    <clipPath id="c569674de1">
      <path d="M 28.265625,73 H 30 v 2 h -1.734375 z m 0,0" clip-rule="nonzero" id="path3"/>
    </clipPath>
    <clipPath id="6e650512ee">
      <path d="m 77,35.515625 h 4 V 38 h -4 z m 0,0" clip-rule="nonzero" id="path4"/>
    </clipPath>
  </defs>
  <g clip-path="url(#d6372f5a1a)" id="g5" transform="translate(-28.300781,-34.088421)">
    <path fill="#4a9ede" d="m 75.882812,86.238281 c 0,-0.414062 0.08203,-0.808593 0.238282,-1.1875 0.15625,-0.382812 0.382812,-0.71875 0.671875,-1.007812 0.292969,-0.292969 0.628906,-0.515625 1.007812,-0.671875 0.378907,-0.160156 0.777344,-0.238282 1.1875,-0.238282 0.410157,0 0.808594,0.07813 1.1875,0.238282 0.378907,0.15625 0.714844,0.378906 1.007813,0.671875 0.289062,0.289062 0.515625,0.625 0.671875,1.007812 0.15625,0.378907 0.238281,0.773438 0.238281,1.1875 0,0.410157 -0.08203,0.808594 -0.238281,1.1875 -0.15625,0.378907 -0.382813,0.714844 -0.671875,1.007813 -0.292969,0.289062 -0.628906,0.515625 -1.007813,0.671875 -0.378906,0.15625 -0.777343,0.234375 -1.1875,0.234375 -0.410156,0 -0.808593,-0.07813 -1.1875,-0.234375 -0.378906,-0.15625 -0.714843,-0.382813 -1.007812,-0.671875 -0.289063,-0.292969 -0.515625,-0.628906 -0.671875,-1.007813 -0.15625,-0.378906 -0.238282,-0.777343 -0.238282,-1.1875 z m 0,0" fill-opacity="1" fill-rule="nonzero" id="path5"/>
  </g>
  <path fill="#4a9ede" d="m 35.6875,52.14986 c 0,-0.34375 0.06641,-0.675781 0.195313,-0.992187 0.132812,-0.316406 0.320312,-0.59375 0.5625,-0.835938 0.242187,-0.246094 0.523437,-0.429687 0.839844,-0.5625 0.316406,-0.132812 0.644531,-0.195312 0.988281,-0.195312 0.34375,0 0.671875,0.0625 0.992187,0.195312 0.316406,0.132813 0.59375,0.316406 0.835938,0.5625 0.242187,0.242188 0.429687,0.519532 0.5625,0.835938 0.132812,0.316406 0.195312,0.648437 0.195312,0.992187 0,0.34375 -0.0625,0.671875 -0.195312,0.988281 -0.132813,0.316407 -0.320313,0.597657 -0.5625,0.839844 -0.242188,0.242188 -0.519532,0.429688 -0.835938,0.5625 -0.320312,0.128906 -0.648437,0.195313 -0.992187,0.195313 -0.34375,0 -0.671875,-0.06641 -0.988281,-0.195313 -0.316407,-0.132812 -0.597657,-0.320312 -0.839844,-0.5625 -0.242188,-0.242187 -0.429688,-0.523437 -0.5625,-0.839844 C 35.753907,52.821735 35.6875,52.49361 35.6875,52.14986 Z m 0,0" fill-opacity="1" fill-rule="nonzero" id="path6"/>
  <path fill="#4a9ede" d="m 23.792969,52.14986 c 0,-0.273437 0.05078,-0.539062 0.15625,-0.792969 0.105469,-0.253906 0.253906,-0.476562 0.449219,-0.671874 0.191406,-0.191407 0.417969,-0.34375 0.671875,-0.449219 0.25,-0.105469 0.515625,-0.15625 0.789062,-0.15625 0.277344,0 0.539063,0.05078 0.792969,0.15625 0.253906,0.105469 0.476563,0.257812 0.671875,0.449219 0.195312,0.195312 0.34375,0.417968 0.449219,0.671874 0.105469,0.253907 0.15625,0.519532 0.15625,0.792969 0,0.273438 -0.05078,0.539063 -0.15625,0.789063 -0.105469,0.253906 -0.253907,0.480468 -0.449219,0.671875 -0.195312,0.195312 -0.417969,0.34375 -0.671875,0.449219 -0.253906,0.105468 -0.515625,0.160156 -0.792969,0.160156 -0.273437,0 -0.539062,-0.05469 -0.789062,-0.160156 -0.253906,-0.105469 -0.480469,-0.253907 -0.671875,-0.449219 -0.195313,-0.191407 -0.34375,-0.417969 -0.449219,-0.671875 -0.105469,-0.25 -0.15625,-0.515625 -0.15625,-0.789063 z m 0,0" fill-opacity="1" fill-rule="nonzero" id="path7"/>
  <path fill="#4a9ede" d="m 11.894531,52.14986 c 0,-0.207031 0.03906,-0.40625 0.117188,-0.59375 0.08203,-0.191406 0.191406,-0.359375 0.339844,-0.503906 0.144531,-0.144531 0.3125,-0.257813 0.5,-0.335937 0.191406,-0.07813 0.390625,-0.121094 0.59375,-0.121094 0.207031,0 0.40625,0.04297 0.597656,0.121094 0.1875,0.07812 0.355469,0.191406 0.5,0.335937 0.148438,0.144531 0.257812,0.3125 0.339844,0.503906 C 14.960943,51.74361 15,51.942829 15,52.14986 c 0,0.203125 -0.03906,0.402344 -0.117187,0.59375 -0.08203,0.1875 -0.191406,0.355469 -0.339844,0.503907 -0.144531,0.144531 -0.3125,0.257812 -0.5,0.335937 -0.191406,0.07813 -0.390625,0.117187 -0.597656,0.117187 -0.203125,0 -0.402344,-0.03906 -0.59375,-0.117187 -0.1875,-0.07813 -0.355469,-0.191406 -0.5,-0.335937 -0.148438,-0.148438 -0.257813,-0.316407 -0.339844,-0.503907 -0.07813,-0.191406 -0.117188,-0.390625 -0.117188,-0.59375 z m 0,0" fill-opacity="1" fill-rule="nonzero" id="path8"/>
  <g clip-path="url(#cd3a8590a1)" id="g9" transform="translate(-28.300781,-34.088421)">
    <path fill="#4a9ede" d="m 28.300781,86.238281 c 0,-0.136719 0.02734,-0.269531 0.08203,-0.398437 0.05078,-0.125 0.125,-0.238282 0.222657,-0.335938 0.09766,-0.09375 0.207031,-0.167968 0.335937,-0.222656 0.125,-0.05078 0.257813,-0.07813 0.394532,-0.07813 0.136718,0 0.269531,0.02734 0.398437,0.07813 0.125,0.05469 0.238281,0.128906 0.335937,0.222656 0.09375,0.09766 0.171876,0.210938 0.222657,0.335938 0.05078,0.128906 0.07813,0.261718 0.07813,0.398437 0,0.136719 -0.02734,0.269531 -0.07813,0.394531 -0.05078,0.128907 -0.128907,0.238282 -0.222657,0.335938 -0.09766,0.09766 -0.210937,0.171875 -0.335937,0.222656 -0.128906,0.05469 -0.261719,0.08203 -0.398437,0.08203 -0.136719,0 -0.269532,-0.02734 -0.394532,-0.08203 -0.128906,-0.05078 -0.238281,-0.125 -0.335937,-0.222656 -0.09766,-0.09766 -0.171875,-0.207031 -0.222657,-0.335938 -0.05469,-0.125 -0.08203,-0.257812 -0.08203,-0.394531 z m 0,0" fill-opacity="1" fill-rule="nonzero" id="path9"/>
  </g>
  <path fill="#4a9ede" d="m 48.101563,39.735798 c 0,-0.34375 0.06641,-0.671875 0.195312,-0.988281 0.132813,-0.320313 0.320313,-0.597657 0.5625,-0.839844 0.242188,-0.242188 0.519532,-0.429688 0.839844,-0.5625 0.316406,-0.128906 0.644531,-0.195313 0.988281,-0.195313 0.34375,0 0.671875,0.06641 0.988281,0.195313 0.316407,0.132812 0.597657,0.320312 0.839844,0.5625 0.242188,0.242187 0.429688,0.519531 0.5625,0.839844 0.128906,0.316406 0.195313,0.644531 0.195313,0.988281 0,0.34375 -0.06641,0.671875 -0.195313,0.988281 -0.132812,0.316406 -0.320312,0.597656 -0.5625,0.839844 -0.242187,0.242187 -0.523437,0.429687 -0.839844,0.5625 -0.316406,0.128906 -0.644531,0.195312 -0.988281,0.195312 -0.34375,0 -0.671875,-0.06641 -0.988281,-0.195312 -0.320312,-0.132813 -0.597656,-0.320313 -0.839844,-0.5625 -0.242187,-0.242188 -0.429687,-0.523438 -0.5625,-0.839844 -0.128906,-0.316406 -0.195312,-0.644531 -0.195312,-0.988281 z m 0,0" fill-opacity="1" fill-rule="nonzero" id="path10"/>
  <path fill="#4a9ede" d="m 36.203125,39.735798 c 0,-0.273438 0.05469,-0.539063 0.160156,-0.792969 0.105469,-0.253906 0.253907,-0.476562 0.449219,-0.671875 0.191407,-0.191406 0.417969,-0.34375 0.667969,-0.445313 0.253906,-0.105468 0.519531,-0.160156 0.792969,-0.160156 0.273437,0 0.539062,0.05469 0.792969,0.160156 0.253906,0.101563 0.476562,0.253907 0.671874,0.445313 0.191407,0.195313 0.34375,0.417969 0.449219,0.671875 0.101563,0.253906 0.15625,0.519531 0.15625,0.792969 0,0.273437 -0.05469,0.539062 -0.15625,0.792969 -0.105469,0.253906 -0.257812,0.476562 -0.449219,0.671874 -0.195312,0.191407 -0.417968,0.339844 -0.671874,0.445313 -0.253907,0.105469 -0.519532,0.160156 -0.792969,0.160156 -0.273438,0 -0.539063,-0.05469 -0.792969,-0.160156 -0.25,-0.105469 -0.476562,-0.253906 -0.667969,-0.445313 -0.195312,-0.195312 -0.34375,-0.417968 -0.449219,-0.671874 -0.105468,-0.253907 -0.160156,-0.519532 -0.160156,-0.792969 z m 0,0" fill-opacity="1" fill-rule="nonzero" id="path11"/>
  <path fill="#4a9ede" d="m 24.308594,39.735798 c 0,-0.207031 0.03906,-0.402344 0.117187,-0.59375 0.07813,-0.191407 0.191407,-0.359375 0.335938,-0.503907 0.148438,-0.144531 0.316406,-0.257812 0.503906,-0.335937 0.191406,-0.07813 0.390625,-0.117187 0.59375,-0.117187 0.207032,0 0.40625,0.03906 0.59375,0.117187 0.191406,0.07813 0.359375,0.191406 0.503906,0.335937 0.148438,0.144532 0.257813,0.3125 0.335938,0.503907 0.08203,0.191406 0.121094,0.386719 0.121094,0.59375 0,0.207031 -0.03906,0.402343 -0.121094,0.59375 -0.07813,0.191406 -0.1875,0.359375 -0.335938,0.503906 -0.144531,0.144531 -0.3125,0.257813 -0.503906,0.335937 -0.1875,0.07813 -0.386718,0.117188 -0.59375,0.117188 -0.203125,0 -0.402344,-0.03906 -0.59375,-0.117188 -0.1875,-0.07812 -0.355468,-0.191406 -0.503906,-0.335937 -0.144531,-0.144531 -0.257812,-0.3125 -0.335938,-0.503906 -0.07812,-0.191407 -0.117187,-0.386719 -0.117187,-0.59375 z m 0,0" fill-opacity="1" fill-rule="nonzero" id="path12"/>
  <path fill="#4a9ede" d="m 12.414063,39.735798 c 0,-0.136719 0.02344,-0.269531 0.07813,-0.394531 0.05078,-0.128907 0.125,-0.242188 0.222656,-0.335938 0.09766,-0.09766 0.210937,-0.171875 0.335937,-0.226562 0.128907,-0.05078 0.257813,-0.07813 0.394532,-0.07813 0.140625,0 0.269531,0.02734 0.398437,0.07813 0.125,0.05469 0.238281,0.128906 0.335938,0.226562 0.09766,0.09375 0.171875,0.207031 0.222656,0.335938 0.05469,0.125 0.07813,0.257812 0.07813,0.394531 0,0.136719 -0.02344,0.269531 -0.07813,0.394531 -0.05078,0.128906 -0.125,0.238281 -0.222656,0.335938 -0.09766,0.09766 -0.210938,0.171874 -0.335938,0.226562 -0.128906,0.05078 -0.257812,0.07813 -0.398437,0.07813 -0.136719,0 -0.265625,-0.02734 -0.394532,-0.07813 -0.125,-0.05469 -0.238281,-0.128906 -0.335937,-0.226562 -0.09766,-0.09766 -0.171875,-0.207032 -0.222656,-0.335938 -0.05469,-0.125 -0.07813,-0.257812 -0.07813,-0.394531 z m 0,0" fill-opacity="1" fill-rule="nonzero" id="path13"/>
  <g clip-path="url(#c569674de1)" id="g14" transform="translate(-28.300781,-34.088421)">
    <path fill="#4a9ede" d="m 28.820312,73.824219 c 0,-0.144531 0.05078,-0.265625 0.152344,-0.367188 0.101563,-0.101562 0.222656,-0.148437 0.363282,-0.148437 0.144531,0 0.265624,0.04687 0.367187,0.148437 0.101563,0.101563 0.152344,0.222657 0.152344,0.367188 0,0.144531 -0.05078,0.265625 -0.152344,0.367187 -0.101563,0.09766 -0.222656,0.148438 -0.367187,0.148438 -0.140626,0 -0.261719,-0.05078 -0.363282,-0.148438 -0.101562,-0.101562 -0.152344,-0.222656 -0.152344,-0.367187 z m 0,0" fill-opacity="1" fill-rule="nonzero" id="path14"/>
  </g>
  <path fill="#4a9ede" d="m 48.617188,27.321735 c 0,-0.273437 0.05469,-0.539062 0.160156,-0.792968 0.101563,-0.25 0.253906,-0.476563 0.445313,-0.667969 0.195312,-0.195313 0.417968,-0.34375 0.671874,-0.449219 0.253907,-0.105469 0.519532,-0.160156 0.792969,-0.160156 0.273438,0 0.539063,0.05469 0.792969,0.160156 0.253906,0.105469 0.476562,0.253906 0.671875,0.449219 0.191406,0.191406 0.339844,0.417969 0.445313,0.667969 0.105468,0.253906 0.160156,0.519531 0.160156,0.792968 0,0.273438 -0.05469,0.539063 -0.160156,0.792969 -0.105469,0.253906 -0.253907,0.476563 -0.445313,0.671875 -0.195313,0.191406 -0.417969,0.34375 -0.671875,0.449219 -0.253906,0.101562 -0.519531,0.15625 -0.792969,0.15625 -0.273437,0 -0.539062,-0.05469 -0.792969,-0.15625 -0.253906,-0.105469 -0.476562,-0.257813 -0.671874,-0.449219 -0.191407,-0.195312 -0.34375,-0.417969 -0.445313,-0.671875 -0.105469,-0.253906 -0.160156,-0.519531 -0.160156,-0.792969 z m 0,0" fill-opacity="1" fill-rule="nonzero" id="path15"/>
  <path fill="#4a9ede" d="m 36.722657,27.321735 c 0,-0.207031 0.03906,-0.402344 0.117187,-0.59375 0.07813,-0.191406 0.191406,-0.359375 0.335937,-0.503906 0.144532,-0.144531 0.3125,-0.257812 0.503907,-0.335938 0.191406,-0.07812 0.386719,-0.117187 0.59375,-0.117187 0.207031,0 0.40625,0.03906 0.59375,0.117187 0.191406,0.07813 0.359375,0.191407 0.503906,0.335938 0.144531,0.144531 0.257813,0.3125 0.335937,0.503906 0.07813,0.191406 0.117188,0.386719 0.117188,0.59375 0,0.207032 -0.03906,0.402344 -0.117188,0.59375 -0.07812,0.191406 -0.191406,0.359375 -0.335937,0.503906 -0.144531,0.144532 -0.3125,0.257813 -0.503906,0.335938 -0.1875,0.07813 -0.386719,0.117188 -0.59375,0.117188 -0.207031,0 -0.402344,-0.03906 -0.59375,-0.117188 -0.191407,-0.07813 -0.359375,-0.191406 -0.503907,-0.335938 -0.144531,-0.144531 -0.257812,-0.3125 -0.335937,-0.503906 -0.07813,-0.191406 -0.117187,-0.386718 -0.117187,-0.59375 z m 0,0" fill-opacity="1" fill-rule="nonzero" id="path16"/>
  <path fill="#4a9ede" d="m 24.824219,27.321735 c 0,-0.136718 0.02734,-0.269531 0.08203,-0.394531 0.05078,-0.128906 0.125,-0.238281 0.222657,-0.335937 0.09766,-0.09766 0.210937,-0.171876 0.335937,-0.226563 0.125,-0.05078 0.257813,-0.07813 0.394531,-0.07813 0.136719,0 0.269532,0.02734 0.398438,0.07813 0.125,0.05469 0.238281,0.128906 0.335937,0.226563 0.09375,0.09766 0.171875,0.207031 0.222657,0.335937 0.05078,0.125 0.07812,0.257813 0.07812,0.394531 0,0.136719 -0.02734,0.269532 -0.07812,0.394532 -0.05078,0.128906 -0.128907,0.242187 -0.222657,0.335937 -0.09766,0.09766 -0.210937,0.171875 -0.335937,0.226563 -0.128906,0.05078 -0.261719,0.07812 -0.398438,0.07812 -0.136718,0 -0.269531,-0.02734 -0.394531,-0.07812 -0.125,-0.05469 -0.238281,-0.128907 -0.335937,-0.226563 -0.09766,-0.09375 -0.171876,-0.207031 -0.222657,-0.335937 -0.05469,-0.125 -0.08203,-0.257813 -0.08203,-0.394532 z m 0,0" fill-opacity="1" fill-rule="nonzero" id="path17"/>
  <path fill="#4a9ede" d="m 12.929688,27.321735 c 0,-0.140625 0.05078,-0.265625 0.152343,-0.367187 0.101563,-0.09766 0.222657,-0.148438 0.363282,-0.148438 0.144531,0 0.265625,0.05078 0.367187,0.148438 0.101563,0.101562 0.152344,0.226562 0.152344,0.367187 0,0.144532 -0.05078,0.265625 -0.152344,0.367188 -0.101562,0.101562 -0.222656,0.152344 -0.367187,0.152344 -0.140625,0 -0.261719,-0.05078 -0.363282,-0.152344 -0.101562,-0.101563 -0.152343,-0.222656 -0.152343,-0.367188 z m 0,0" fill-opacity="1" fill-rule="nonzero" id="path18"/>
  <path fill="#4a9ede" d="m 49.136719,14.907673 c 0,-0.203125 0.03906,-0.402344 0.117188,-0.59375 0.07812,-0.1875 0.191406,-0.355469 0.335937,-0.503906 0.144531,-0.144532 0.3125,-0.257813 0.503906,-0.335938 0.191407,-0.07813 0.386719,-0.117188 0.59375,-0.117188 0.207031,0 0.402344,0.03906 0.59375,0.117188 0.191407,0.07813 0.359375,0.191406 0.503907,0.335938 0.144531,0.148437 0.257812,0.316406 0.335937,0.503906 0.07813,0.191406 0.117187,0.390625 0.117187,0.59375 0,0.207031 -0.03906,0.40625 -0.117187,0.59375 -0.07813,0.191406 -0.191406,0.359375 -0.335937,0.503906 -0.144532,0.144531 -0.3125,0.257812 -0.503907,0.335938 -0.191406,0.08203 -0.386719,0.121093 -0.59375,0.121093 -0.207031,0 -0.402343,-0.03906 -0.59375,-0.121093 -0.191406,-0.07813 -0.359375,-0.191407 -0.503906,-0.335938 -0.144531,-0.144531 -0.257813,-0.3125 -0.335937,-0.503906 -0.07813,-0.1875 -0.117188,-0.386719 -0.117188,-0.59375 z m 0,0" fill-opacity="1" fill-rule="nonzero" id="path19"/>
  <path fill="#4a9ede" d="m 37.238281,14.907673 c 0,-0.136719 0.02734,-0.269532 0.07813,-0.394532 0.05469,-0.128906 0.128906,-0.238281 0.226562,-0.335937 0.09766,-0.09766 0.207031,-0.171875 0.335938,-0.222656 0.125,-0.05469 0.257812,-0.08203 0.394531,-0.08203 0.136719,0 0.269531,0.02734 0.394531,0.08203 0.128906,0.05078 0.242188,0.125 0.335938,0.222656 0.09766,0.09766 0.171874,0.207031 0.226562,0.335937 0.05078,0.125 0.07813,0.257813 0.07813,0.394532 0,0.136718 -0.02734,0.269531 -0.07813,0.398437 -0.05469,0.125 -0.128906,0.238281 -0.226562,0.335938 -0.09375,0.09375 -0.207032,0.171875 -0.335938,0.222656 -0.125,0.05078 -0.257812,0.07813 -0.394531,0.07813 -0.136719,0 -0.269531,-0.02734 -0.394531,-0.07813 -0.128907,-0.05078 -0.238282,-0.128906 -0.335938,-0.222656 -0.09766,-0.09766 -0.171875,-0.210938 -0.226562,-0.335938 -0.05078,-0.128906 -0.07813,-0.261719 -0.07813,-0.398437 z m 0,0" fill-opacity="1" fill-rule="nonzero" id="path20"/>
  <path fill="#4a9ede" d="m 25.34375,14.907673 c 0,-0.140625 0.05078,-0.261719 0.152344,-0.363282 0.101563,-0.101562 0.222656,-0.152343 0.363281,-0.152343 0.144532,0 0.265625,0.05078 0.367188,0.152343 0.101562,0.101563 0.152344,0.222657 0.152344,0.363282 0,0.144531 -0.05078,0.265625 -0.152344,0.367187 -0.101563,0.101563 -0.222656,0.152344 -0.367188,0.152344 -0.140625,0 -0.261718,-0.05078 -0.363281,-0.152344 -0.101563,-0.101562 -0.152344,-0.222656 -0.152344,-0.367187 z m 0,0" fill-opacity="1" fill-rule="nonzero" id="path21"/>
  <g clip-path="url(#6e650512ee)" id="g22" transform="translate(-28.300781,-34.088421)">
    <path fill="#4a9ede" d="m 77.953125,36.585938 c 0,-0.136719 0.02734,-0.269532 0.07813,-0.394532 0.05469,-0.128906 0.128906,-0.238281 0.226562,-0.335937 0.09766,-0.09766 0.207032,-0.171875 0.335938,-0.226563 0.125,-0.05078 0.257812,-0.07813 0.394531,-0.07813 0.136719,0 0.269531,0.02734 0.394531,0.07813 0.128907,0.05469 0.238282,0.128906 0.335938,0.226563 0.09766,0.09766 0.171875,0.207031 0.226562,0.335937 0.05078,0.125 0.07813,0.257813 0.07813,0.394532 0,0.136718 -0.02734,0.269531 -0.07813,0.394531 -0.05469,0.128906 -0.128906,0.242187 -0.226562,0.335937 -0.09766,0.09766 -0.207031,0.171875 -0.335938,0.226563 -0.125,0.05078 -0.257812,0.07813 -0.394531,0.07813 -0.136719,0 -0.269531,-0.02734 -0.394531,-0.07813 -0.128906,-0.05469 -0.238281,-0.128907 -0.335938,-0.226563 -0.09766,-0.09375 -0.171874,-0.207031 -0.226562,-0.335937 -0.05078,-0.125 -0.07813,-0.257813 -0.07813,-0.394531 z m 0,0" fill-opacity="1" fill-rule="nonzero" id="path22"/>
  </g>
  <path fill="#4a9ede" d="m 37.757813,2.497517 c 0,-0.140626 0.05078,-0.265626 0.148437,-0.367188 0.101563,-0.09766 0.226563,-0.148438 0.367188,-0.148438 0.144531,0 0.265625,0.05078 0.367187,0.148438 0.101563,0.101562 0.152344,0.226562 0.152344,0.367188 0,0.144531 -0.05078,0.265624 -0.152344,0.367187 -0.101562,0.101563 -0.222656,0.152344 -0.367187,0.152344 -0.140625,0 -0.265625,-0.05078 -0.367188,-0.152344 C 37.80859,2.763141 37.757813,2.642048 37.757813,2.497517 Z m 0,0" fill-opacity="1" fill-rule="nonzero" id="path23"/>
  <g fill="#d8dddf" fill-opacity="1" id="g26" transform="translate(-28.300781,-34.088421)">
    <g transform="translate(84.30488,89.344213)" id="g25">
      <g id="g24">
        <path d="m 4,0.109375 c -0.492188,0 -0.945312,-0.0898438 -1.359375,-0.265625 -0.40625,-0.175781 -0.761719,-0.425781 -1.0625,-0.75 C 1.273438,-1.226562 1.039062,-1.609375 0.875,-2.046875 c -0.167969,-0.4375 -0.25,-0.914063 -0.25,-1.4375 0,-0.519531 0.082031,-1 0.25,-1.4375 0.164062,-0.4375 0.398438,-0.816406 0.703125,-1.140625 0.300781,-0.320312 0.65625,-0.570312 1.0625,-0.75 C 3.054688,-6.988281 3.507812,-7.078125 4,-7.078125 c 0.476562,0 0.90625,0.085937 1.28125,0.25 0.375,0.167969 0.691406,0.386719 0.953125,0.65625 0.257813,0.261719 0.445313,0.539063 0.5625,0.828125 L 6.09375,-5.03125 C 5.914062,-5.4375 5.644531,-5.765625 5.28125,-6.015625 4.925781,-6.265625 4.5,-6.390625 4,-6.390625 c -0.511719,0 -0.964844,0.125 -1.359375,0.375 C 2.242188,-5.773438 1.929688,-5.4375 1.703125,-5 c -0.230469,0.429688 -0.34375,0.933594 -0.34375,1.515625 0,0.574219 0.113281,1.078125 0.34375,1.515625 0.226563,0.4375 0.539063,0.777344 0.9375,1.015625 C 3.035156,-0.710938 3.488281,-0.59375 4,-0.59375 c 0.5,0 0.925781,-0.117188 1.28125,-0.359375 0.363281,-0.238281 0.632812,-0.5625 0.8125,-0.96875 L 6.796875,-1.625 c -0.117187,0.292969 -0.304687,0.574219 -0.5625,0.84375 -0.261719,0.261719 -0.578125,0.476562 -0.953125,0.640625 -0.375,0.1640625 -0.804688,0.25 -1.28125,0.25 z m 0,0" id="path24"/>
      </g>
    </g>
  </g>
  <g fill="#d8dddf" fill-opacity="1" id="g29" transform="translate(-28.300781,-34.088421)">
    <g transform="translate(91.61206,89.344213)" id="g28">
      <g id="g27">
        <path d="m 4.109375,0.109375 c -0.492187,0 -0.949219,-0.0898438 -1.375,-0.265625 C 2.316406,-0.332031 1.945312,-0.582031 1.625,-0.90625 1.3125,-1.226562 1.066406,-1.609375 0.890625,-2.046875 0.710938,-2.484375 0.625,-2.960938 0.625,-3.484375 0.625,-4.015625 0.710938,-4.5 0.890625,-4.9375 1.066406,-5.375 1.3125,-5.753906 1.625,-6.078125 1.945312,-6.398438 2.316406,-6.644531 2.734375,-6.8125 c 0.425781,-0.175781 0.882813,-0.265625 1.375,-0.265625 0.488281,0 0.941406,0.089844 1.359375,0.265625 0.425781,0.179688 0.796875,0.429688 1.109375,0.75 0.320313,0.3125 0.570313,0.6875 0.75,1.125 0.175781,0.4375 0.265625,0.921875 0.265625,1.453125 0,0.523437 -0.089844,1 -0.265625,1.4375 -0.179687,0.4375 -0.429687,0.820313 -0.75,1.140625 -0.3125,0.324219 -0.683594,0.574219 -1.109375,0.75 C 5.050781,0.0195312 4.597656,0.109375 4.109375,0.109375 Z m 0,-0.703125 c 0.40625,0 0.773437,-0.070312 1.109375,-0.21875 0.332031,-0.144531 0.617188,-0.351562 0.859375,-0.625 0.25,-0.269531 0.4375,-0.578125 0.5625,-0.921875 0.132813,-0.351563 0.203125,-0.726563 0.203125,-1.125 0,-0.394531 -0.070312,-0.765625 -0.203125,-1.109375 -0.125,-0.351562 -0.3125,-0.664062 -0.5625,-0.9375 C 5.835938,-5.800781 5.550781,-6.007812 5.21875,-6.15625 4.882812,-6.3125 4.515625,-6.390625 4.109375,-6.390625 3.703125,-6.390625 3.332031,-6.3125 3,-6.15625 c -0.335938,0.148438 -0.625,0.355469 -0.875,0.625 -0.242188,0.273438 -0.429688,0.585938 -0.5625,0.9375 -0.136719,0.34375 -0.203125,0.714844 -0.203125,1.109375 0,0.398437 0.066406,0.773437 0.203125,1.125 0.132812,0.34375 0.320312,0.652344 0.5625,0.921875 0.25,0.273438 0.539062,0.480469 0.875,0.625 0.34375,0.148438 0.710938,0.21875 1.109375,0.21875 z m 0,0" id="path26"/>
      </g>
    </g>
  </g>
  <g fill="#d8dddf" fill-opacity="1" id="g32" transform="translate(-28.300781,-34.088421)">
    <g transform="translate(99.826787,89.344213)" id="g31">
      <g id="g30">
        <path d="m 0.828125,0 v -6.96875 h 0.65625 L 4.09375,-3.171875 H 3.734375 L 6.34375,-6.96875 H 7 V 0 H 6.25 V -5.96875 L 6.5,-5.875 3.9375,-2.15625 H 3.890625 L 1.34375,-5.875 1.578125,-5.96875 V 0 Z m 0,0" id="path29"/>
      </g>
    </g>
  </g>
  <g fill="#d8dddf" fill-opacity="1" id="g35" transform="translate(-28.300781,-34.088421)">
    <g transform="translate(107.64856,89.344213)" id="g34">
      <g id="g33">
        <path d="m 0.828125,0 v -6.96875 h 0.65625 L 4.09375,-3.171875 H 3.734375 L 6.34375,-6.96875 H 7 V 0 H 6.25 V -5.96875 L 6.5,-5.875 3.9375,-2.15625 H 3.890625 L 1.34375,-5.875 1.578125,-5.96875 V 0 Z m 0,0" id="path32"/>
      </g>
    </g>
  </g>
  <g fill="#d8dddf" fill-opacity="1" id="g38" transform="translate(-28.300781,-34.088421)">
    <g transform="translate(115.47033,89.344213)" id="g37">
      <g id="g36">
        <path d="m 0.828125,0 v -6.96875 h 0.75 V 0 Z m 0,0" id="path35"/>
      </g>
    </g>
  </g>
  <g fill="#d8dddf" fill-opacity="1" id="g41" transform="translate(-28.300781,-34.088421)">
    <g transform="translate(117.86551,89.344213)" id="g40">
      <g id="g39">
        <path d="M 2.03125,0 V -6.265625 H 0.109375 V -6.96875 H 4.6875 v 0.703125 H 2.78125 V 0 Z m 0,0" id="path38"/>
      </g>
    </g>
  </g>
  <g fill="#d8dddf" fill-opacity="1" id="g44" transform="translate(-28.300781,-34.088421)">
    <g transform="translate(122.65587,89.344213)" id="g43">
      <g id="g42">
        <path d="M 2.03125,0 V -6.265625 H 0.109375 V -6.96875 H 4.6875 v 0.703125 H 2.78125 V 0 Z m 0,0" id="path41"/>
      </g>
    </g>
  </g>
  <g fill="#d8dddf" fill-opacity="1" id="g47" transform="translate(-28.300781,-34.088421)">
    <g transform="translate(127.44624,89.344213)" id="g46">
      <g id="g45">
        <path d="M 0.828125,0 V -6.96875 H 5.3125 v 0.703125 H 1.578125 V -3.84375 H 5.125 v 0.703125 H 1.578125 v 2.4375 H 5.3125 V 0 Z m 0,0" id="path44"/>
      </g>
    </g>
  </g>
  <g fill="#d8dddf" fill-opacity="1" id="g50" transform="translate(-28.300781,-34.088421)">
    <g transform="translate(133.17222,89.344213)" id="g49">
      <g id="g48">
        <path d="m 0.828125,0 v -6.96875 h 2.28125 c 0.695313,0 1.300781,0.140625 1.8125,0.421875 0.507813,0.28125 0.90625,0.683594 1.1875,1.203125 0.28125,0.523438 0.421875,1.140625 0.421875,1.859375 0,0.699219 -0.140625,1.3125 -0.421875,1.84375 -0.28125,0.523437 -0.679687,0.929687 -1.1875,1.21875 C 4.410156,-0.140625 3.804688,0 3.109375,0 Z m 0.75,-0.703125 h 1.53125 c 0.539063,0 1.003906,-0.113281 1.390625,-0.34375 0.394531,-0.226563 0.703125,-0.550781 0.921875,-0.96875 C 5.640625,-2.429688 5.75,-2.921875 5.75,-3.484375 5.75,-4.054688 5.640625,-4.550781 5.421875,-4.96875 5.203125,-5.382812 4.894531,-5.703125 4.5,-5.921875 4.101562,-6.148438 3.640625,-6.265625 3.109375,-6.265625 h -1.53125 z m 0,0" id="path47"/>
      </g>
    </g>
  </g>
  <g fill="#d8dddf" fill-opacity="1" id="g56" transform="translate(-28.300781,-34.088421)">
    <g transform="translate(141.70506,89.344213)" id="g55">
      <g id="g54">
        <path d="M 2.03125,0 V -6.265625 H 0.109375 V -6.96875 H 4.6875 v 0.703125 H 2.78125 V 0 Z m 0,0" id="path53"/>
      </g>
    </g>
  </g>
  <g fill="#d8dddf" fill-opacity="1" id="g59" transform="translate(-28.300781,-34.088421)">
    <g transform="translate(146.21464,89.344213)" id="g58">
      <g id="g57">
        <path d="m 4.109375,0.109375 c -0.492187,0 -0.949219,-0.0898438 -1.375,-0.265625 C 2.316406,-0.332031 1.945312,-0.582031 1.625,-0.90625 1.3125,-1.226562 1.066406,-1.609375 0.890625,-2.046875 0.710938,-2.484375 0.625,-2.960938 0.625,-3.484375 0.625,-4.015625 0.710938,-4.5 0.890625,-4.9375 1.066406,-5.375 1.3125,-5.753906 1.625,-6.078125 1.945312,-6.398438 2.316406,-6.644531 2.734375,-6.8125 c 0.425781,-0.175781 0.882813,-0.265625 1.375,-0.265625 0.488281,0 0.941406,0.089844 1.359375,0.265625 0.425781,0.179688 0.796875,0.429688 1.109375,0.75 0.320313,0.3125 0.570313,0.6875 0.75,1.125 0.175781,0.4375 0.265625,0.921875 0.265625,1.453125 0,0.523437 -0.089844,1 -0.265625,1.4375 -0.179687,0.4375 -0.429687,0.820313 -0.75,1.140625 -0.3125,0.324219 -0.683594,0.574219 -1.109375,0.75 C 5.050781,0.0195312 4.597656,0.109375 4.109375,0.109375 Z m 0,-0.703125 c 0.40625,0 0.773437,-0.070312 1.109375,-0.21875 0.332031,-0.144531 0.617188,-0.351562 0.859375,-0.625 0.25,-0.269531 0.4375,-0.578125 0.5625,-0.921875 0.132813,-0.351563 0.203125,-0.726563 0.203125,-1.125 0,-0.394531 -0.070312,-0.765625 -0.203125,-1.109375 -0.125,-0.351562 -0.3125,-0.664062 -0.5625,-0.9375 C 5.835938,-5.800781 5.550781,-6.007812 5.21875,-6.15625 4.882812,-6.3125 4.515625,-6.390625 4.109375,-6.390625 3.703125,-6.390625 3.332031,-6.3125 3,-6.15625 c -0.335938,0.148438 -0.625,0.355469 -0.875,0.625 -0.242188,0.273438 -0.429688,0.585938 -0.5625,0.9375 -0.136719,0.34375 -0.203125,0.714844 -0.203125,1.109375 0,0.398437 0.066406,0.773437 0.203125,1.125 0.132812,0.34375 0.320312,0.652344 0.5625,0.921875 0.25,0.273438 0.539062,0.480469 0.875,0.625 0.34375,0.148438 0.710938,0.21875 1.109375,0.21875 z m 0,0" id="path56"/>
      </g>
    </g>
  </g>
  <g fill="#d8dddf" fill-opacity="1" id="g65" transform="translate(-28.300781,-34.088421)">
    <g transform="translate(156.01992,89.344213)" id="g64">
      <g id="g63">
        <path d="m 4,0.109375 c -0.492188,0 -0.945312,-0.0898438 -1.359375,-0.265625 -0.40625,-0.175781 -0.761719,-0.425781 -1.0625,-0.75 C 1.273438,-1.226562 1.039062,-1.609375 0.875,-2.046875 c -0.167969,-0.4375 -0.25,-0.914063 -0.25,-1.4375 0,-0.519531 0.082031,-1 0.25,-1.4375 0.164062,-0.4375 0.398438,-0.816406 0.703125,-1.140625 0.300781,-0.320312 0.65625,-0.570312 1.0625,-0.75 C 3.054688,-6.988281 3.507812,-7.078125 4,-7.078125 c 0.476562,0 0.90625,0.085937 1.28125,0.25 0.375,0.167969 0.691406,0.386719 0.953125,0.65625 0.257813,0.261719 0.445313,0.539063 0.5625,0.828125 L 6.09375,-5.03125 C 5.914062,-5.4375 5.644531,-5.765625 5.28125,-6.015625 4.925781,-6.265625 4.5,-6.390625 4,-6.390625 c -0.511719,0 -0.964844,0.125 -1.359375,0.375 C 2.242188,-5.773438 1.929688,-5.4375 1.703125,-5 c -0.230469,0.429688 -0.34375,0.933594 -0.34375,1.515625 0,0.574219 0.113281,1.078125 0.34375,1.515625 0.226563,0.4375 0.539063,0.777344 0.9375,1.015625 C 3.035156,-0.710938 3.488281,-0.59375 4,-0.59375 c 0.5,0 0.925781,-0.117188 1.28125,-0.359375 0.363281,-0.238281 0.632812,-0.5625 0.8125,-0.96875 L 6.796875,-1.625 c -0.117187,0.292969 -0.304687,0.574219 -0.5625,0.84375 -0.261719,0.261719 -0.578125,0.476562 -0.953125,0.640625 -0.375,0.1640625 -0.804688,0.25 -1.28125,0.25 z m 0,0" id="path62"/>
      </g>
    </g>
  </g>
  <g fill="#d8dddf" fill-opacity="1" id="g68" transform="translate(-28.300781,-34.088421)">
    <g transform="translate(163.3271,89.344213)" id="g67">
      <g id="g66">
        <path d="m 4.109375,0.109375 c -0.492187,0 -0.949219,-0.0898438 -1.375,-0.265625 C 2.316406,-0.332031 1.945312,-0.582031 1.625,-0.90625 1.3125,-1.226562 1.066406,-1.609375 0.890625,-2.046875 0.710938,-2.484375 0.625,-2.960938 0.625,-3.484375 0.625,-4.015625 0.710938,-4.5 0.890625,-4.9375 1.066406,-5.375 1.3125,-5.753906 1.625,-6.078125 1.945312,-6.398438 2.316406,-6.644531 2.734375,-6.8125 c 0.425781,-0.175781 0.882813,-0.265625 1.375,-0.265625 0.488281,0 0.941406,0.089844 1.359375,0.265625 0.425781,0.179688 0.796875,0.429688 1.109375,0.75 0.320313,0.3125 0.570313,0.6875 0.75,1.125 0.175781,0.4375 0.265625,0.921875 0.265625,1.453125 0,0.523437 -0.089844,1 -0.265625,1.4375 -0.179687,0.4375 -0.429687,0.820313 -0.75,1.140625 -0.3125,0.324219 -0.683594,0.574219 -1.109375,0.75 C 5.050781,0.0195312 4.597656,0.109375 4.109375,0.109375 Z m 0,-0.703125 c 0.40625,0 0.773437,-0.070312 1.109375,-0.21875 0.332031,-0.144531 0.617188,-0.351562 0.859375,-0.625 0.25,-0.269531 0.4375,-0.578125 0.5625,-0.921875 0.132813,-0.351563 0.203125,-0.726563 0.203125,-1.125 0,-0.394531 -0.070312,-0.765625 -0.203125,-1.109375 -0.125,-0.351562 -0.3125,-0.664062 -0.5625,-0.9375 C 5.835938,-5.800781 5.550781,-6.007812 5.21875,-6.15625 4.882812,-6.3125 4.515625,-6.390625 4.109375,-6.390625 3.703125,-6.390625 3.332031,-6.3125 3,-6.15625 c -0.335938,0.148438 -0.625,0.355469 -0.875,0.625 -0.242188,0.273438 -0.429688,0.585938 -0.5625,0.9375 -0.136719,0.34375 -0.203125,0.714844 -0.203125,1.109375 0,0.398437 0.066406,0.773437 0.203125,1.125 0.132812,0.34375 0.320312,0.652344 0.5625,0.921875 0.25,0.273438 0.539062,0.480469 0.875,0.625 0.34375,0.148438 0.710938,0.21875 1.109375,0.21875 z m 0,0" id="path65"/>
      </g>
    </g>
  </g>
  <g fill="#d8dddf" fill-opacity="1" id="g71" transform="translate(-28.300781,-34.088421)">
    <g transform="translate(171.54182,89.344213)" id="g70">
      <g id="g69">
        <path d="m 0.828125,0 v -6.96875 h 0.65625 L 5.5625,-1.109375 h -0.25 V -6.96875 h 0.75 V 0 H 5.40625 L 1.3125,-5.90625 H 1.578125 V 0 Z m 0,0" id="path68"/>
      </g>
    </g>
  </g>
  <g fill="#d8dddf" fill-opacity="1" id="g74" transform="translate(-28.300781,-34.088421)">
    <g transform="translate(178.42797,89.344213)" id="g73">
      <g id="g72">
        <path d="m 0.828125,0 v -6.96875 h 0.65625 L 5.5625,-1.109375 h -0.25 V -6.96875 h 0.75 V 0 H 5.40625 L 1.3125,-5.90625 H 1.578125 V 0 Z m 0,0" id="path71"/>
      </g>
    </g>
  </g>
  <g fill="#d8dddf" fill-opacity="1" id="g77" transform="translate(-28.300781,-34.088421)">
    <g transform="translate(185.31412,89.344213)" id="g76">
      <g id="g75">
        <path d="M 0.828125,0 V -6.96875 H 5.3125 v 0.703125 H 1.578125 V -3.84375 H 5.125 v 0.703125 H 1.578125 v 2.4375 H 5.3125 V 0 Z m 0,0" id="path74"/>
      </g>
    </g>
  </g>
  <g fill="#d8dddf" fill-opacity="1" id="g80" transform="translate(-28.300781,-34.088421)">
    <g transform="translate(191.04011,89.344213)" id="g79">
      <g id="g78">
        <path d="m 4,0.109375 c -0.492188,0 -0.945312,-0.0898438 -1.359375,-0.265625 -0.40625,-0.175781 -0.761719,-0.425781 -1.0625,-0.75 C 1.273438,-1.226562 1.039062,-1.609375 0.875,-2.046875 c -0.167969,-0.4375 -0.25,-0.914063 -0.25,-1.4375 0,-0.519531 0.082031,-1 0.25,-1.4375 0.164062,-0.4375 0.398438,-0.816406 0.703125,-1.140625 0.300781,-0.320312 0.65625,-0.570312 1.0625,-0.75 C 3.054688,-6.988281 3.507812,-7.078125 4,-7.078125 c 0.476562,0 0.90625,0.085937 1.28125,0.25 0.375,0.167969 0.691406,0.386719 0.953125,0.65625 0.257813,0.261719 0.445313,0.539063 0.5625,0.828125 L 6.09375,-5.03125 C 5.914062,-5.4375 5.644531,-5.765625 5.28125,-6.015625 4.925781,-6.265625 4.5,-6.390625 4,-6.390625 c -0.511719,0 -0.964844,0.125 -1.359375,0.375 C 2.242188,-5.773438 1.929688,-5.4375 1.703125,-5 c -0.230469,0.429688 -0.34375,0.933594 -0.34375,1.515625 0,0.574219 0.113281,1.078125 0.34375,1.515625 0.226563,0.4375 0.539063,0.777344 0.9375,1.015625 C 3.035156,-0.710938 3.488281,-0.59375 4,-0.59375 c 0.5,0 0.925781,-0.117188 1.28125,-0.359375 0.363281,-0.238281 0.632812,-0.5625 0.8125,-0.96875 L 6.796875,-1.625 c -0.117187,0.292969 -0.304687,0.574219 -0.5625,0.84375 -0.261719,0.261719 -0.578125,0.476562 -0.953125,0.640625 -0.375,0.1640625 -0.804688,0.25 -1.28125,0.25 z m 0,0" id="path77"/>
      </g>
    </g>
  </g>
  <g fill="#d8dddf" fill-opacity="1" id="g83" transform="translate(-28.300781,-34.088421)">
    <g transform="translate(198.34729,89.344213)" id="g82">
      <g id="g81">
        <path d="M 2.03125,0 V -6.265625 H 0.109375 V -6.96875 H 4.6875 v 0.703125 H 2.78125 V 0 Z m 0,0" id="path80"/>
      </g>
    </g>
  </g>
  <g fill="#4a9ede" fill-opacity="1" id="g86" transform="translate(-28.300781,-34.088421)">
    <g transform="translate(80.259247,76.041546)" id="g85">
      <g id="g84">
        <path d="M 3.984375,0 V -41.296875 H 11.53125 V -6.65625 H 29.203125 V 0 Z m 0,0" id="path83"/>
      </g>
    </g>
  </g>
  <g fill="#4a9ede" fill-opacity="1" id="g89" transform="translate(-28.300781,-34.088421)">
    <g transform="translate(110.34867,76.041546)" id="g88">
      <g id="g87">
        <path d="m 12.53125,0.671875 c -2.117188,0 -3.949219,-0.351563 -5.5,-1.046875 C 5.476562,-1.082031 4.273438,-2.09375 3.421875,-3.40625 2.578125,-4.71875 2.15625,-6.242188 2.15625,-7.984375 c 0,-1.65625 0.367188,-3.140625 1.109375,-4.453125 0.738281,-1.3125 1.882813,-2.410156 3.4375,-3.296875 1.550781,-0.882813 3.507813,-1.515625 5.875,-1.890625 l 9.875,-1.609375 V -13.6875 L 13.96875,-12.25 c -1.4375,0.261719 -2.511719,0.726562 -3.21875,1.390625 -0.699219,0.667969 -1.046875,1.53125 -1.046875,2.59375 0,1.042969 0.394531,1.871094 1.1875,2.484375 0.789063,0.605469 1.78125,0.90625 2.96875,0.90625 1.507813,0 2.847656,-0.320312 4.015625,-0.96875 1.164062,-0.644531 2.070312,-1.539062 2.71875,-2.6875 0.644531,-1.144531 0.96875,-2.398438 0.96875,-3.765625 V -20.0625 c 0,-1.289062 -0.511719,-2.367188 -1.53125,-3.234375 -1.011719,-0.875 -2.351562,-1.3125 -4.015625,-1.3125 -1.554687,0 -2.929687,0.417969 -4.125,1.25 C 10.691406,-22.523438 9.8125,-21.425781 9.25,-20.0625 l -5.921875,-2.875 c 0.59375,-1.59375 1.523437,-2.96875 2.796875,-4.125 1.269531,-1.164062 2.773438,-2.082031 4.515625,-2.75 1.738281,-0.664062 3.625,-1 5.65625,-1 2.46875,0 4.644531,0.453125 6.53125,1.359375 1.882813,0.90625 3.351563,2.164063 4.40625,3.765625 1.050781,1.605469 1.578125,3.480469 1.578125,5.625 V 0 H 21.953125 V -5.15625 L 23.5,-5.265625 c -0.78125,1.292969 -1.710938,2.375 -2.78125,3.25 -1.0625,0.867187 -2.28125,1.53125 -3.65625,2 -1.367188,0.457031 -2.875,0.6875 -4.53125,0.6875 z m 0,0" id="path86"/>
      </g>
    </g>
  </g>
  <g fill="#4a9ede" fill-opacity="1" id="g92" transform="translate(-28.300781,-34.088421)">
    <g transform="translate(142.48837,76.041546)" id="g91">
      <g id="g90">
        <path d="m 19.84375,0.671875 c -2.179688,0 -4.183594,-0.433594 -6.015625,-1.296875 -1.835937,-0.875 -3.28125,-2.125 -4.34375,-3.75 l 0.71875,-1.4375 V 0 H 3.375 v -41.953125 h 7.265625 v 17.796875 l -1.109375,-1.5 c 1.03125,-1.625 2.429688,-2.890625 4.203125,-3.796875 1.78125,-0.90625 3.832031,-1.359375 6.15625,-1.359375 2.84375,0 5.410156,0.703125 7.703125,2.109375 2.289062,1.398437 4.109375,3.277344 5.453125,5.640625 1.351563,2.367188 2.03125,5.027344 2.03125,7.984375 0,2.917969 -0.667969,5.578125 -2,7.984375 -1.324219,2.40625 -3.132813,4.304688 -5.421875,5.6875 -2.292969,1.3867188 -4.898438,2.078125 -7.8125,2.078125 z m -0.828125,-6.65625 c 1.65625,0 3.128906,-0.382813 4.421875,-1.15625 1.300781,-0.78125 2.3125,-1.851563 3.03125,-3.21875 0.71875,-1.375 1.078125,-2.945313 1.078125,-4.71875 0,-1.769531 -0.359375,-3.328125 -1.078125,-4.671875 -0.71875,-1.351562 -1.730469,-2.425781 -3.03125,-3.21875 -1.292969,-0.789062 -2.765625,-1.1875 -4.421875,-1.1875 -1.59375,0 -3.03125,0.386719 -4.3125,1.15625 -1.273437,0.773438 -2.265625,1.855469 -2.984375,3.25 -0.71875,1.386719 -1.078125,2.945312 -1.078125,4.671875 0,1.773437 0.359375,3.34375 1.078125,4.71875 0.71875,1.367187 1.710938,2.4375 2.984375,3.21875 1.28125,0.773437 2.71875,1.15625 4.3125,1.15625 z m 0,0" id="path89"/>
      </g>
    </g>
  </g>
  <g fill="#4a9ede" fill-opacity="1" id="g95" transform="translate(-28.300781,-34.088421)">
    <g transform="translate(179.7261,76.041546)" id="g94">
      <g id="g93">
        <path d="m 14.859375,0.671875 c -3.21875,0 -6.023437,-0.765625 -8.40625,-2.296875 -2.386719,-1.539062 -4.023437,-3.625 -4.90625,-6.25 l 5.4375,-2.59375 c 0.769531,1.699219 1.847656,3.027344 3.234375,3.984375 1.382812,0.960937 2.929688,1.4375 4.640625,1.4375 1.320313,0 2.367187,-0.289063 3.140625,-0.875 0.78125,-0.59375 1.171875,-1.375 1.171875,-2.34375 0,-0.582031 -0.15625,-1.066406 -0.46875,-1.453125 -0.3125,-0.394531 -0.742187,-0.726562 -1.28125,-1 C 16.890625,-11 16.3125,-11.234375 15.6875,-11.421875 l -4.9375,-1.375 c -2.554688,-0.738281 -4.484375,-1.863281 -5.796875,-3.375 C 3.648438,-17.691406 3,-19.488281 3,-21.5625 c 0,-1.84375 0.46875,-3.457031 1.40625,-4.84375 0.9375,-1.382812 2.242188,-2.460938 3.921875,-3.234375 1.6875,-0.78125 3.617187,-1.171875 5.796875,-1.171875 2.851562,0 5.367188,0.683594 7.546875,2.046875 2.175781,1.367187 3.726563,3.289063 4.65625,5.765625 l -5.546875,2.609375 c -0.523438,-1.375 -1.390625,-2.46875 -2.609375,-3.28125 -1.21875,-0.8125 -2.585937,-1.21875 -4.09375,-1.21875 -1.21875,0 -2.183594,0.28125 -2.890625,0.84375 -0.699219,0.554687 -1.046875,1.273437 -1.046875,2.15625 0,0.554687 0.144531,1.03125 0.4375,1.4375 0.300781,0.40625 0.71875,0.742187 1.25,1 0.539063,0.261719 1.160156,0.5 1.859375,0.71875 l 4.828125,1.4375 c 2.46875,0.742187 4.375,1.851563 5.71875,3.328125 1.351563,1.480469 2.03125,3.292969 2.03125,5.4375 0,1.8125 -0.480469,3.414062 -1.4375,4.796875 -0.960937,1.386719 -2.289063,2.46875 -3.984375,3.25 -1.699219,0.769531 -3.695312,1.15625 -5.984375,1.15625 z m 0,0" id="path92"/>
      </g>
    </g>
  </g>
</svg>